<svg xmlns="http://www.w3.org/2000/svg" viewBox="0 0 437.9 168"><path fill="#FFF" d="M17.8 39C8 39 0 47 0 56.8v54.3c0 9.8 8 17.8 17.8 17.8h384.8c9.8 0 17.8-8 17.8-17.8V56.8c0-9.8-8-17.8-17.8-17.8H17.8z"/><path fill="#BD3039" d="M17.8 43.3c-7.4 0-13.5 6.1-13.5 13.5v54.3c0 7.4 6.1 13.5 13.5 13.5h384.8c7.4 0 13.5-6.1 13.5-13.5V56.8c0-7.4-6.1-13.5-13.5-13.5H17.8z"/><path fill="#0D2B56" d="M259.4 97.1c0 3.7-3 6.8-6.8 6.8s-6.8-3.1-6.8-6.8c0-3.8 3-6.8 6.8-6.8s6.8 3 6.8 6.8z"/><path fill="#FFF" d="M23.6 71h8.9v6.3h.1c3.3-4.9 5.9-7.1 11.2-7.1 1 0 2.3.1 3.3.3v9.8c-1.7-.5-3.3-1-5.1-1-6.2 0-9.2 3.6-9.2 9.8v13.7h-9.2V71zM84.9 93.4c-2.7 7.5-9 10.7-17.4 10.7C56.4 104.1 49 99 49 87c0-12 7.4-17.1 18.5-17.1 12.1 0 17.9 7 17.9 19v.9H58.5v.1c0 3 2.7 7.7 9 7.7 3.7 0 6.3-1.4 7.6-4.2h9.8zM76 83.6v-.1c0-1.7-1.9-7.1-8.7-7.1-7.2 0-8.8 6.3-8.8 7.1v.1H76zM115.6 98.9h-.1c-3 4.1-6.9 5.2-11.1 5.2-8.7 0-15.6-5.6-15.6-16.8 0-10.3 6.8-17.1 15.6-17.1 5.2 0 9 1.9 10.7 4.8h.1V59.7h9.2v43.2h-8.9v-4zm-8.6-2.5c4.6 0 8.6-3.1 8.6-9.2s-4-9.2-8.6-9.2-8.7 3.1-8.7 9.2c0 6 4.1 9.2 8.7 9.2zM139.2 93c.4 2.7 2.1 4.5 6.8 4.5 4.2 0 6.6-1.1 6.6-3.4 0-1.8-.8-2.5-5.2-3.2l-8.4-1.3c-5.8-.9-9.2-3-9.2-9 0-8.6 7.7-10.7 15.3-10.7 12.9 0 15.9 4.8 16.5 10.8h-10.1c-.5-3.3-3.5-4.2-6.2-4.2-2.4 0-6 .2-6 3.4 0 1.5.7 2.5 4.6 3l6.4.8c9.3 1.1 12.4 4.3 12.4 9.8 0 9.4-9.3 10.8-17.3 10.8-10.6 0-15.9-3.5-16.4-11.1h10.2zM184.6 69.9c11 0 18.4 5.1 18.4 17.1 0 12-7.4 17.1-18.5 17.1S166.1 99 166.1 87c0-12 7.4-17.1 18.5-17.1zm0 26.8c5.7 0 9-3.5 9-9.7s-3.3-9.7-9-9.7-9 3.5-9 9.7 3.3 9.7 9 9.7zM230.3 71h11.4l-11.8 15.3 12.8 16.5h-11.9l-7.2-10.5-7.1 10.5h-11.7l12.7-16.5L205.7 71h11.5l6.4 9.8 6.7-9.8z"/><path fill="#0D2B56" d="M289.7 82.8c-1.1-4.2-3.9-5.6-7.6-5.6-5.7 0-9 3.5-9 9.7s3.3 9.7 9 9.7c4.1 0 7.1-2.5 7.6-6.5h9.5c-1.7 11.3-8.8 13.9-17.9 13.9-10.5 0-17.7-5.1-17.7-17.1 0-12 7.4-17.1 18.5-17.1 7.1 0 15.4 2.4 17.1 13h-9.5zM320.8 69.9c11.1 0 18.4 5.1 18.4 17.1 0 12-7.4 17.1-18.4 17.1S302.3 99 302.3 87c0-12 7.4-17.1 18.5-17.1zm0 26.8c5.7 0 9-3.5 9-9.7s-3.3-9.7-9-9.7-9 3.5-9 9.7 3.3 9.7 9 9.7zM387.7 83.8c0-4.3-3-5.5-5.6-5.5-3.8 0-6.9 2.4-6.9 7.4v17.2H366V83.8c0-4.3-3-5.5-5.5-5.5-3.9 0-7.1 2.4-7.1 7.4v17.2h-9.2V71h8.9v4.6h.1c1.7-2.7 6-5.5 11.4-5.5 5.3 0 8.2 2.4 9.6 6 2.6-3.8 6.4-6 11.5-6 5.6 0 11.1 2.7 11.1 11.1v21.6h-9.2v-19z"/><g><g fill="#FFF"><path d="M429.3 123.6h-2.1v5.4h-1.8v-5.4h-2.1V122h6v1.6zM430.1 122h2.7l1.2 4.7 1.2-4.7h2.7v7h-1.7v-5.3l-1.5 5.3h-1.4l-1.5-5.3v5.3h-1.7v-7z"/></g></g></svg>