<svg xmlns="http://www.w3.org/2000/svg" viewBox="0 0 276.123 192.163"><title>Cincinnati Reds dark logo</title><path d="M155.156 38.812c35.25 0 61.85 16.273 70.792 30.395h44.38c-.802-1.61-2.79-6.995-2.79-6.995h-42.393c-8.934-14.122-36.763-30.397-72.022-30.397-59.956 0-83.48 39.85-83.48 58.936 0 11.055 3.218 20.775 8.694 29.057-3.588-6.735-4.434-16.88-4.434-23.442 0-19.088 22.642-57.553 81.253-57.553z" fill="#FFF"/><path d="M151.546 185.298c-61.294 0-85.39-26.29-113.77-56.43C26.13 116.507 18.852 105.345 0 91.44l3.87 8.955c18.128 14.828 25.616 25.54 37.255 37.898 28.38 30.142 52.07 53.868 113.365 53.868 53.662 0 95.207-26.515 114.732-59.146l-2.937-6.865c-19.532 32.63-61.063 59.146-114.74 59.146z" fill="#FFF"/><path d="M153.123 31.815c35.26 0 63.088 16.275 72.022 30.397h42.392C247.874 23.392 197.135 0 146.387 0 96.546 0 58.458 28.746 36.605 54.637 15.41 79.733 5.664 87.78 1.946 90.307.58 91.238 0 91.443 0 91.443c18.852 13.904 26.13 25.066 37.776 37.425 28.38 30.14 52.476 56.43 113.77 56.43 53.677 0 95.207-26.514 114.74-59.145H224.37c-19.61 14.893-43.628 26.91-74.17 26.91-28.19 0-57.655-11.765-71.863-33.256-5.476-8.28-8.695-18.002-8.695-29.056 0-19.086 23.525-58.935 83.48-58.935zM260.15 165.38h-3.537v9.597h-2.387v-9.596h-3.523v-2.09h9.448v2.09zm15.973 9.582h-2.387v-9.292h-.05l-3.394 9.292h-2.3l-3.263-9.292h-.05v9.307h-2.388V163.29h4.138l2.706 7.64h.058l2.82-7.64h4.11v11.672z" fill="#D11511"/></svg>